<mxfile host="app.diagrams.net" modified="2022-04-26T06:03:06.841Z" agent="5.0 (X11; Linux x86_64) AppleWebKit/537.36 (KHTML, like Gecko) Chrome/92.0.4515.107 Safari/537.36" etag="MtY684C6MvlpitTPboLV" version="17.1.3" type="github">
  <diagram id="J6YV8cOtGyDHpJeSJNE8" name="Page-1">
    <mxGraphModel dx="1441" dy="873" grid="0" gridSize="10" guides="1" tooltips="1" connect="1" arrows="1" fold="1" page="1" pageScale="1" pageWidth="827" pageHeight="1169" math="0" shadow="0">
      <root>
        <mxCell id="0" />
        <mxCell id="1" parent="0" />
        <mxCell id="ZuHu1Szu-IaeNftHFgJ2-2" value="" style="rounded=1;whiteSpace=wrap;html=1;fillColor=#f5f5f5;fontColor=#333333;strokeColor=#666666;" vertex="1" parent="1">
          <mxGeometry x="35" y="310" width="765" height="50" as="geometry" />
        </mxCell>
        <mxCell id="ZuHu1Szu-IaeNftHFgJ2-3" value="[剪切]" style="rounded=0;whiteSpace=wrap;html=1;fillColor=#fff2cc;strokeColor=#d6b656;" vertex="1" parent="1">
          <mxGeometry x="147" y="317" width="50" height="35" as="geometry" />
        </mxCell>
        <mxCell id="ZuHu1Szu-IaeNftHFgJ2-4" value="" style="shape=curlyBracket;whiteSpace=wrap;html=1;rounded=1;flipH=1;rotation=90;" vertex="1" parent="1">
          <mxGeometry x="316.32" y="190.69" width="32.37" height="375" as="geometry" />
        </mxCell>
        <mxCell id="ZuHu1Szu-IaeNftHFgJ2-5" value="[复制]" style="rounded=0;whiteSpace=wrap;html=1;fillColor=#fff2cc;strokeColor=#d6b656;" vertex="1" parent="1">
          <mxGeometry x="197" y="317.5" width="50" height="35" as="geometry" />
        </mxCell>
        <mxCell id="ZuHu1Szu-IaeNftHFgJ2-6" value="[粘贴]" style="rounded=0;whiteSpace=wrap;html=1;fillColor=#fff2cc;strokeColor=#d6b656;" vertex="1" parent="1">
          <mxGeometry x="247" y="317.5" width="50" height="35" as="geometry" />
        </mxCell>
        <mxCell id="ZuHu1Szu-IaeNftHFgJ2-7" value="[分享]" style="rounded=0;whiteSpace=wrap;html=1;fillColor=#fff2cc;strokeColor=#d6b656;" vertex="1" parent="1">
          <mxGeometry x="297" y="317" width="50" height="35" as="geometry" />
        </mxCell>
        <mxCell id="ZuHu1Szu-IaeNftHFgJ2-8" value="[全选]" style="rounded=0;whiteSpace=wrap;html=1;fillColor=#fff2cc;strokeColor=#d6b656;" vertex="1" parent="1">
          <mxGeometry x="347" y="317" width="50" height="35" as="geometry" />
        </mxCell>
        <mxCell id="ZuHu1Szu-IaeNftHFgJ2-9" value="[纯文本粘贴]" style="rounded=0;whiteSpace=wrap;html=1;fillColor=#fff2cc;strokeColor=#d6b656;" vertex="1" parent="1">
          <mxGeometry x="397" y="317" width="78" height="35" as="geometry" />
        </mxCell>
        <mxCell id="ZuHu1Szu-IaeNftHFgJ2-10" value="[搜索]" style="rounded=0;whiteSpace=wrap;html=1;fillColor=#fff2cc;strokeColor=#d6b656;" vertex="1" parent="1">
          <mxGeometry x="475" y="317" width="50" height="35" as="geometry" />
        </mxCell>
        <mxCell id="ZuHu1Szu-IaeNftHFgJ2-11" value="[自定义 ...]" style="rounded=0;whiteSpace=wrap;html=1;fillColor=#d5e8d4;strokeColor=#82b366;" vertex="1" parent="1">
          <mxGeometry x="538" y="317" width="70" height="35" as="geometry" />
        </mxCell>
        <mxCell id="ZuHu1Szu-IaeNftHFgJ2-12" value="[PROCESS TEXT MENU ...]" style="rounded=0;whiteSpace=wrap;html=1;fillColor=#f8cecc;strokeColor=#b85450;" vertex="1" parent="1">
          <mxGeometry x="622" y="317.5" width="170" height="35" as="geometry" />
        </mxCell>
        <mxCell id="ZuHu1Szu-IaeNftHFgJ2-14" value="&lt;font color=&quot;#333333&quot;&gt;默认菜单项, 根据实际选择的内容决定显示哪几个按钮, 我们可以动态隐藏这些按钮&lt;/font&gt;" style="text;html=1;strokeColor=none;fillColor=none;align=center;verticalAlign=middle;whiteSpace=wrap;rounded=0;" vertex="1" parent="1">
          <mxGeometry x="222" y="394" width="236" height="36" as="geometry" />
        </mxCell>
        <mxCell id="ZuHu1Szu-IaeNftHFgJ2-15" value="" style="shape=curlyBracket;whiteSpace=wrap;html=1;rounded=1;flipH=1;rotation=90;" vertex="1" parent="1">
          <mxGeometry x="557" y="345" width="30" height="65" as="geometry" />
        </mxCell>
        <mxCell id="ZuHu1Szu-IaeNftHFgJ2-16" value="&lt;font color=&quot;#006600&quot;&gt;此处可以添加自定义按钮&lt;/font&gt;" style="text;html=1;strokeColor=none;fillColor=none;align=center;verticalAlign=middle;whiteSpace=wrap;rounded=0;" vertex="1" parent="1">
          <mxGeometry x="528" y="397" width="90" height="30" as="geometry" />
        </mxCell>
        <mxCell id="ZuHu1Szu-IaeNftHFgJ2-17" value="" style="shape=curlyBracket;whiteSpace=wrap;html=1;rounded=1;flipH=1;rotation=90;" vertex="1" parent="1">
          <mxGeometry x="693.25" y="293.75" width="30" height="167.5" as="geometry" />
        </mxCell>
        <mxCell id="ZuHu1Szu-IaeNftHFgJ2-18" value="&lt;font color=&quot;#333333&quot;&gt;其他APP向系统注册的按钮&lt;/font&gt;" style="text;html=1;strokeColor=none;fillColor=none;align=center;verticalAlign=middle;whiteSpace=wrap;rounded=0;" vertex="1" parent="1">
          <mxGeometry x="666" y="397" width="90" height="30" as="geometry" />
        </mxCell>
        <mxCell id="ZuHu1Szu-IaeNftHFgJ2-20" value="[TextClassifier]" style="rounded=0;whiteSpace=wrap;html=1;fillColor=#ffe6cc;strokeColor=#d79b00;" vertex="1" parent="1">
          <mxGeometry x="44" y="317" width="90" height="35" as="geometry" />
        </mxCell>
        <mxCell id="ZuHu1Szu-IaeNftHFgJ2-21" value="" style="shape=curlyBracket;whiteSpace=wrap;html=1;rounded=1;flipH=1;rotation=90;" vertex="1" parent="1">
          <mxGeometry x="74.5" y="332.5" width="30" height="88" as="geometry" />
        </mxCell>
        <mxCell id="ZuHu1Szu-IaeNftHFgJ2-22" value="&lt;font color=&quot;#333333&quot;&gt;文本分类器, 比如选择url时会显示&quot;打开&quot;&lt;/font&gt;" style="text;html=1;strokeColor=none;fillColor=none;align=center;verticalAlign=middle;whiteSpace=wrap;rounded=0;" vertex="1" parent="1">
          <mxGeometry x="32.5" y="393.5" width="115.5" height="33.5" as="geometry" />
        </mxCell>
      </root>
    </mxGraphModel>
  </diagram>
</mxfile>
